HIERARCHY
ROOT Hips
{
	OFFSET 0.000000 0.000000 0.000000 
	CHANNELS 6 Xposition Yposition Zposition Zrotation Yrotation Xrotation
	JOINT LeftUpLeg
	{
		OFFSET 1.363060 -1.794630 0.839290 
		CHANNELS 3 Zrotation Yrotation Xrotation
		JOINT LeftLeg
		{
			OFFSET 2.448110 -6.726130 0.000000 
			CHANNELS 3 Zrotation Yrotation Xrotation
			JOINT LeftFoot
			{
				OFFSET 2.562200 -7.039590 0.000000 
				CHANNELS 3 Zrotation Yrotation Xrotation
				JOINT LeftToeBase
				{
					OFFSET 0.157640 -0.433110 2.322550 
					CHANNELS 3 Zrotation Yrotation Xrotation
					End Site
					{
						OFFSET 0.000000 0.000000 0.000000 
					}
				}
			}
		}
	}
	JOINT RightUpLeg
	{
		OFFSET -1.305520 -1.794630 0.839290 
		CHANNELS 3 Zrotation Yrotation Xrotation
		JOINT RightLeg
		{
			OFFSET -2.542530 -6.985550 0.000000 
			CHANNELS 3 Zrotation Yrotation Xrotation
			JOINT RightFoot
			{
				OFFSET -2.568260 -7.056230 0.000000 
				CHANNELS 3 Zrotation Yrotation Xrotation
				JOINT RightToeBase
				{
					OFFSET -0.164730 -0.452590 2.363150 
					CHANNELS 3 Zrotation Yrotation Xrotation
					End Site
					{
						OFFSET 0.000000 0.000000 0.000000 
					}
				}
			}
		}
	}
	JOINT Spine
	{
		OFFSET 0.028270 2.035590 -0.193380 
		CHANNELS 3 Zrotation Yrotation Xrotation
		JOINT Spine1
		{
			OFFSET 0.056720 2.048850 -0.042750 
			CHANNELS 3 Zrotation Yrotation Xrotation
			JOINT Neck1
			{
				OFFSET -0.054170 1.746240 0.172020 
				CHANNELS 3 Zrotation Yrotation Xrotation
				JOINT Head
				{
					OFFSET 0.104070 1.761360 -0.123970 
					CHANNELS 3 Zrotation Yrotation Xrotation
					End Site
					{
						OFFSET 0.000000 0.000000 0.000000 
					}
				}
			}
			JOINT LeftArm
			{
				OFFSET 3.362410 1.200890 -0.311210 
				CHANNELS 3 Zrotation Yrotation Xrotation
				JOINT LeftForeArm
				{
					OFFSET 4.983000 -0.000000 -0.000000 
					CHANNELS 3 Zrotation Yrotation Xrotation
					JOINT LeftHand
					{
						OFFSET 3.483560 -0.000000 -0.000000 
						CHANNELS 3 Zrotation Yrotation Xrotation
						JOINT LeftHandIndex1
						{
							OFFSET 0.715260 -0.000000 -0.000000 
							CHANNELS 3 Zrotation Yrotation Xrotation
							End Site
							{
								OFFSET 0.000000 0.000000 0.000000 
							}
						}
					}
				}
			}
			JOINT RightArm
			{
				OFFSET -3.136600 1.374050 -0.404650 
				CHANNELS 3 Zrotation Yrotation Xrotation
				JOINT RightForeArm
				{
					OFFSET -5.241900 -0.000000 -0.000000 
					CHANNELS 3 Zrotation Yrotation Xrotation
					JOINT RightHand
					{
						OFFSET -3.444170 -0.000000 -0.000000 
						CHANNELS 3 Zrotation Yrotation Xrotation
						JOINT RightHandIndex1
						{
							OFFSET -0.622530 -0.000000 -0.000000 
							CHANNELS 3 Zrotation Yrotation Xrotation
							End Site
							{
								OFFSET 0.000000 0.000000 0.000000 
							}
						}
					}
				}
			}
		}
	}
}
MOTION
Frames: 13
Frame Time: 0.041667
-1.169082 17.648671 -0.609653 1.232972 0.528126 9.835862 -20.816023 -14.214384 -10.642336 0.299504 4.383513 15.602679 -1.489414 11.583327 -10.228014 0.809300 -5.740900 -16.034600 31.703984 12.917120 -10.075720 -1.800030 -5.064054 18.494568 0.510410 -10.158043 -14.208136 -0.064100 1.634000 -4.495200 0.927189 1.064639 -2.082968 -1.588642 0.671349 -2.211102 5.654430 -13.083397 2.670554 2.646700 -6.422300 2.259700 -82.339453 4.399337 63.247866 29.955200 -38.042870 -9.608274 0.324698 2.175960 -13.050543 -7.125000 0.000000 0.000000 82.788363 -8.960534 31.862602 -34.616107 42.826389 -10.856084 -0.487341 -0.997966 -14.070561 7.125000 0.000000 0.000000 
-1.169469 17.645381 -0.600266 1.184529 0.609788 9.783876 -20.811923 -14.177022 -10.342055 0.259351 4.247296 15.250529 -1.538486 11.817003 -10.203309 0.893600 -6.025200 -16.857600 31.776342 12.767784 -10.018391 -1.801692 -5.064824 18.511332 0.505030 -10.132324 -14.239438 -0.070400 1.711700 -4.709500 0.944317 1.079699 -2.101543 -1.585379 0.678539 -2.193778 5.682867 -13.100740 2.695241 2.668000 -6.431100 2.272100 -82.388418 4.485307 63.247043 29.928973 -38.019811 -9.590291 0.343171 2.161415 -13.138592 -7.125000 0.000000 0.000000 82.822106 -8.920230 31.751057 -34.748516 42.944186 -10.948503 -0.501562 -0.999921 -14.173064 7.125000 0.000000 0.000000 
-1.172662 17.643543 -0.594169 1.094175 0.718451 9.675804 -20.741040 -14.044289 -9.993861 0.208631 4.071667 14.794582 -1.570970 11.953158 -10.169922 0.868800 -5.943100 -16.619300 31.915998 12.665766 -9.883736 -1.801459 -5.062753 18.528160 0.510859 -10.195633 -14.299073 -0.068400 1.686800 -4.641000 0.989075 1.067479 -2.113235 -1.520779 0.672362 -2.215210 5.707464 -13.116101 2.692790 2.680300 -6.438500 2.273400 -82.459819 4.619944 63.049350 29.958936 -38.050278 -9.606404 0.318887 2.147919 -13.136472 -7.125000 0.000000 0.000000 82.837936 -8.840744 31.610177 -34.875913 43.050026 -11.027379 -0.507471 -0.992786 -13.980459 7.125000 0.000000 0.000000 
-1.174791 17.639962 -0.585460 1.083147 0.757199 9.523687 -20.768747 -13.958718 -9.558148 0.160577 3.901348 14.370853 -1.598784 12.116150 -10.325901 0.803600 -5.721200 -15.977500 31.963974 12.575587 -9.674248 -1.800781 -5.049440 18.519473 0.512661 -10.222590 -14.340319 -0.066600 1.664800 -4.580200 1.012859 1.052995 -2.123302 -1.455204 0.664398 -2.245981 5.662869 -13.068238 2.728664 2.642100 -6.416000 2.270700 -82.568784 4.799428 62.664044 30.002506 -38.093710 -9.628096 0.297952 2.127999 -13.083224 -7.125000 0.000000 0.000000 82.865158 -8.803566 31.581668 -35.049670 43.187382 -11.129326 -0.499483 -0.999679 -13.979283 7.125000 0.000000 0.000000 
-1.173533 17.636382 -0.572396 1.055981 0.704566 9.330167 -20.796643 -13.850120 -9.025886 0.116918 3.733668 13.966386 -1.642888 12.342867 -10.418009 0.833400 -5.823800 -16.274000 32.019406 12.389058 -9.421416 -1.799819 -5.026450 18.491204 0.504241 -10.128173 -14.291824 -0.071400 1.723600 -4.742400 1.031119 1.083968 -2.110239 -1.418704 0.679022 -2.224757 5.607222 -13.021535 2.747168 2.606700 -6.394600 2.250700 -82.679658 4.907022 62.416702 29.981240 -38.077318 -9.611470 0.290563 2.108830 -13.160788 -7.125000 0.000000 0.000000 82.888835 -8.769902 31.532588 -35.166878 43.283917 -11.206371 -0.495469 -1.014386 -14.040715 7.125000 0.000000 0.000000 
-1.172565 17.632608 -0.562042 0.972541 0.709008 9.190158 -20.728298 -13.741341 -8.597816 0.076983 3.574055 13.566790 -1.668953 12.409894 -10.271647 0.868700 -5.942700 -16.618400 32.124548 12.248508 -9.236987 -1.797941 -5.011645 18.476693 0.495873 -10.060195 -14.293482 -0.071100 1.719800 -4.731900 1.053308 1.123835 -2.093545 -1.405853 0.698049 -2.169221 5.634205 -13.043697 2.753228 2.623300 -6.405900 2.242900 -82.745372 4.916417 62.354864 29.908369 -38.012795 -9.568096 0.271360 2.103765 -13.249092 -7.125000 0.000000 0.000000 82.907851 -8.669126 31.416609 -35.289103 43.385826 -11.280374 -0.490471 -1.015883 -14.088032 7.125000 0.000000 0.000000 
-1.172372 17.629898 -0.556042 0.894011 0.816823 9.093801 -20.633187 -13.681946 -8.301920 0.045575 3.446772 13.241778 -1.669059 12.335802 -10.081754 0.851400 -5.884700 -16.450300 32.228330 12.100927 -9.099506 -1.793001 -4.993000 18.445885 0.491241 -10.045521 -14.342629 -0.063200 1.622100 -4.462300 1.089182 1.107968 -2.108404 -1.351742 0.690332 -2.178014 5.701255 -13.050141 2.778913 2.668100 -6.409400 2.250700 -82.814220 4.974706 62.311082 29.823873 -37.936805 -9.518713 0.254737 2.104696 -13.249090 -7.125000 0.000000 0.000000 82.881846 -8.596040 31.402505 -35.449547 43.513429 -11.375294 -0.488735 -1.012458 -14.245085 7.125000 0.000000 0.000000 
-1.171694 17.627188 -0.550333 0.866725 0.926041 9.022485 -20.593459 -13.630372 -8.081977 0.022763 3.351910 13.001535 -1.666040 12.260118 -9.921173 0.866600 -5.935800 -16.598300 32.275185 11.895157 -8.997694 -1.788387 -4.971113 18.402832 0.483759 -9.993982 -14.355935 -0.062100 1.607300 -4.421700 1.101926 1.101748 -2.124050 -1.331275 0.686883 -2.173275 5.705055 -13.056999 2.835553 2.662700 -6.413100 2.276700 -82.809908 5.048168 62.282254 29.785086 -37.901002 -9.494129 0.246615 2.098148 -13.224592 -7.125000 0.000000 0.000000 82.916223 -8.561983 31.327612 -35.615514 43.650240 -11.484134 -0.495718 -1.015964 -14.326238 7.125000 0.000000 0.000000 
-1.171501 17.625834 -0.541914 0.833062 0.971554 8.899940 -20.557590 -13.478313 -7.839799 0.004145 3.269931 12.807145 -1.645247 12.131952 -9.913028 0.851500 -5.885000 -16.451100 32.327130 11.714631 -8.830753 -1.787205 -4.955886 18.385964 0.473969 -9.930466 -14.378383 -0.065500 1.651100 -4.542400 1.104044 1.130023 -2.118789 -1.338292 0.699501 -2.135282 5.628242 -13.069761 2.943870 2.595000 -6.420200 2.324200 -82.797524 5.043762 62.248783 29.715080 -37.835206 -9.451645 0.236151 2.100186 -13.203381 -7.125000 0.000000 0.000000 83.017143 -8.527342 31.169503 -35.772871 43.782979 -11.590499 -0.504024 -1.020464 -14.329898 7.125000 0.000000 0.000000 
-1.172275 17.623995 -0.533688 0.781544 1.000806 8.773044 -20.501436 -13.247726 -7.638076 -0.011595 3.194541 12.627019 -1.628780 12.002512 -9.815301 0.875500 -5.965500 -16.684400 32.402223 11.634088 -8.675608 -1.788974 -4.955121 18.406874 0.470322 -9.933087 -14.440879 -0.066200 1.659700 -4.566200 1.121127 1.150898 -2.122853 -1.308616 0.708592 -2.138373 5.558570 -13.064961 2.941632 2.540500 -6.419300 2.295100 -82.836586 5.080223 62.069168 29.647740 -37.774899 -9.412521 0.203297 2.106587 -13.016995 -7.125000 0.000000 0.000000 83.110775 -8.476080 31.034444 -35.872261 43.869325 -11.660293 -0.511669 -1.022366 -14.429620 7.125000 0.000000 0.000000 
-1.172759 17.622834 -0.527398 0.779887 1.091429 8.686069 -20.492187 -13.075031 -7.511775 -0.021724 3.140599 12.497309 -1.609914 11.835384 -9.611930 0.916400 -6.099500 -17.073300 32.419800 11.544671 -8.562688 -1.789022 -4.949310 18.406864 0.475127 -9.983187 -14.478416 -0.067200 1.672400 -4.601300 1.136167 1.111135 -2.136559 -1.256461 0.688155 -2.152038 5.540997 -13.046033 2.821219 2.527200 -6.410800 2.197700 -82.900900 5.112497 61.832566 29.543421 -37.682569 -9.354274 0.146382 2.117759 -12.794749 -7.125000 0.000000 0.000000 83.193536 -8.410605 30.978058 -35.950144 43.937976 -11.707996 -0.520722 -1.006610 -14.581302 7.125000 0.000000 0.000000 
-1.172759 17.621189 -0.522753 0.870580 1.222582 8.622471 -20.589032 -12.885344 -7.441569 -0.031368 3.088998 12.371769 -1.596865 11.677583 -9.315107 0.980500 -6.303100 -17.666500 32.337220 11.457584 -8.486664 -1.792980 -4.951626 18.424970 0.484482 -10.080381 -14.532593 -0.072300 1.734800 -4.773200 1.139487 1.064090 -2.159325 -1.170673 0.664916 -2.177584 5.568685 -13.044700 2.756088 2.551100 -6.410900 2.148900 -82.958710 5.124879 61.661657 29.442995 -37.590496 -9.295282 0.115585 2.116825 -12.548100 -7.125000 0.000000 0.000000 83.258111 -8.380836 30.904558 -36.069996 44.030533 -11.769185 -0.518009 -0.987344 -14.583972 7.125000 0.000000 0.000000 
-1.173049 17.620705 -0.517721 0.902152 1.355003 8.534048 -20.622145 -12.690291 -7.317430 -0.046711 3.017524 12.196025 -1.580967 11.532530 -9.136564 1.028500 -6.451000 -18.098700 32.315972 11.435141 -8.387778 -1.800255 -4.968029 18.486124 0.486063 -10.165910 -14.667324 -0.062700 1.616300 -4.446300 1.153517 1.017619 -2.186078 -1.095056 0.642164 -2.216644 5.600561 -13.010475 2.829868 2.579800 -6.395000 2.183800 -83.022806 5.199056 61.432819 29.416088 -37.564042 -9.273561 0.127637 2.097281 -12.135784 -7.125000 0.000000 0.000000 83.287167 -8.364567 30.911752 -36.164773 44.105518 -11.835329 -0.510365 -1.012256 -14.644634 7.125000 0.000000 0.000000 
